<svg width="500" height="291" viewBox="0 0 500 291" fill="none" xmlns="http://www.w3.org/2000/svg">
<mask id="mask0_230_22" style="mask-type:luminance" maskUnits="userSpaceOnUse" x="0" y="0" width="500" height="291">
<path d="M0 0.0888672H500V291H0V0.0888672Z" fill="white"/>
</mask>
<g mask="url(#mask0_230_22)">
<path d="M403.584 93.2764H373.917L319.167 38.5212C294.386 13.7399 261.438 0.0888672 226.402 0.0888672H207.86C190.282 0.0888672 173.074 3.0472 156.714 8.87012C149.016 11.6097 143.235 13.9795 139.048 16.1097C129.735 20.8337 120.98 26.8493 113.042 33.9899C100.433 45.3337 90.6309 58.6722 83.9069 73.6201C80.4694 81.2399 77.9173 88.1462 76.2871 94.2347C33.4017 100.276 0.224609 137.177 0.224609 181.641V204.349C0.224609 227.328 18.9225 246.032 41.9069 246.032H56.36C61.5319 271.662 84.2194 291.016 111.35 291.016C138.485 291.016 161.167 271.662 166.344 246.032H333.204C338.381 271.662 361.068 291.016 388.199 291.016C415.329 291.016 438.016 271.662 443.193 246.032H458.094C481.079 246.032 499.782 227.334 499.782 204.349V189.526C499.777 136.453 456.626 93.2764 403.584 93.2764ZM303.469 54.2191L342.521 93.2764H257.261L247.396 70.667C244.949 65.0524 238.423 62.4847 232.782 64.9326C227.162 67.3805 224.6 73.9274 227.048 79.5472L233.037 93.2764H208.376V22.292H226.396C255.506 22.292 282.881 33.6305 303.469 54.2191ZM104.152 82.7347C109.605 70.6097 117.594 59.766 127.886 50.4951C134.381 44.6566 141.516 39.7503 149.105 35.9066C152.396 34.2295 157.464 32.167 164.162 29.7868C171.324 27.2347 178.683 25.3545 186.173 24.1045V93.2764H99.8548C101.027 90.0107 102.464 86.4743 104.152 82.7347ZM111.35 268.813C92.6569 268.813 77.4434 253.604 77.4434 234.907C77.4434 216.209 92.6569 200.995 111.35 200.995C130.042 200.995 145.256 216.209 145.256 234.907C145.256 253.604 130.042 268.813 111.35 268.813ZM388.199 268.813C369.501 268.813 354.292 253.604 354.292 234.907C354.292 216.209 369.501 200.995 388.199 200.995C406.891 200.995 422.1 216.209 422.1 234.907C422.1 253.604 406.891 268.813 388.199 268.813ZM458.094 223.828H443.193C438.037 198.177 415.344 178.792 388.193 178.792C361.048 178.792 338.355 198.177 333.199 223.828H166.35C161.188 198.177 138.495 178.792 111.35 178.792C84.2038 178.792 61.5111 198.177 56.3496 223.828H41.9069C33.7507 223.828 26.7715 218.776 23.8757 211.646H36.1673C42.2975 211.646 47.2663 206.677 47.2663 200.547C47.2663 194.417 42.2975 189.443 36.1673 189.443H22.4225V181.641C22.4225 145.344 51.9277 115.693 88.1829 115.485C88.2298 115.485 88.2767 115.5 88.3288 115.5H249.969C249.98 115.5 249.99 115.5 250.006 115.5C250.021 115.5 250.037 115.5 250.058 115.5H364.464C364.537 115.5 364.605 115.479 364.678 115.474H403.584C433.324 115.474 458.954 133.162 470.699 158.547H455.589C449.459 158.547 444.485 163.516 444.485 169.651C444.485 175.782 449.459 180.75 455.589 180.75H477.006C477.35 183.636 477.574 186.552 477.574 189.526V193.308C471.751 193.651 467.12 198.438 467.12 204.349C467.12 209.167 470.209 213.229 474.501 214.761C471.037 220.193 465.001 223.828 458.094 223.828Z" fill="#AF7D19"/>
</g>
<path d="M229.057 189.442H184.146C178.016 189.442 173.047 194.416 173.047 200.547C173.047 206.677 178.016 211.646 184.146 211.646H229.057C235.188 211.646 240.156 206.677 240.156 200.547C240.156 194.416 235.188 189.442 229.057 189.442Z" fill="#AF7D19"/>
<path d="M282.328 189.442H264.354C258.224 189.442 253.25 194.416 253.25 200.547C253.25 206.677 258.224 211.646 264.354 211.646H282.328C288.458 211.646 293.427 206.677 293.427 200.547C293.427 194.416 288.458 189.442 282.328 189.442Z" fill="#AF7D19"/>
</svg>
