<svg xmlns="http://www.w3.org/2000/svg" xmlns:xlink="http://www.w3.org/1999/xlink" width="40" zoomAndPan="magnify" viewBox="0 0 30 30.000001" height="40" preserveAspectRatio="xMidYMid meet" version="1.0"><defs><clipPath id="32301ce78b"><path d="M 0.484375 0 L 29.515625 0 L 29.515625 29.03125 L 0.484375 29.03125 Z M 0.484375 0 " clip-rule="nonzero"/></clipPath></defs><g clip-path="url(#32301ce78b)"><path fill="#000000" d="M 15 0 C 6.984375 0 0.484375 6.5 0.484375 14.515625 C 0.484375 22.53125 6.984375 29.03125 15 29.03125 C 20.273438 29.03125 24.890625 26.21875 27.429688 22.011719 C 28.753906 19.824219 29.515625 17.257812 29.515625 14.515625 C 29.515625 11.109375 28.34375 7.972656 26.371094 5.496094 C 23.714844 2.148438 19.605469 0 15 0 Z M 9.050781 17.175781 C 9.050781 17.445312 8.835938 17.660156 8.570312 17.660156 L 6.109375 17.660156 C 5.839844 17.660156 5.625 17.445312 5.625 17.175781 L 5.625 11.855469 C 5.625 11.585938 5.839844 11.371094 6.109375 11.371094 L 8.570312 11.371094 C 8.835938 11.371094 9.050781 11.585938 9.050781 11.855469 Z M 16.324219 20.539062 C 16.324219 20.714844 16.226562 20.875 16.074219 20.960938 C 16 21.003906 15.921875 21.023438 15.839844 21.023438 C 15.75 21.023438 15.664062 21 15.585938 20.949219 L 10.167969 17.589844 C 10.027344 17.5 9.941406 17.34375 9.941406 17.175781 L 9.941406 11.855469 C 9.941406 11.6875 10.027344 11.53125 10.167969 11.445312 L 15.585938 8.082031 C 15.734375 7.988281 15.921875 7.984375 16.074219 8.070312 C 16.226562 8.15625 16.324219 8.316406 16.324219 8.492188 Z M 18.226562 16.902344 C 18.132812 16.996094 18.007812 17.046875 17.882812 17.046875 C 17.761719 17.046875 17.636719 16.996094 17.542969 16.902344 C 17.355469 16.714844 17.355469 16.40625 17.542969 16.21875 C 17.996094 15.765625 18.246094 15.160156 18.246094 14.515625 C 18.246094 13.871094 17.996094 13.265625 17.542969 12.8125 C 17.355469 12.625 17.355469 12.316406 17.542969 12.128906 C 17.730469 11.941406 18.039062 11.941406 18.226562 12.128906 C 18.863281 12.765625 19.214844 13.613281 19.214844 14.515625 C 19.214844 15.417969 18.863281 16.265625 18.226562 16.902344 Z M 19.707031 18.867188 C 19.582031 18.867188 19.460938 18.820312 19.367188 18.726562 C 19.175781 18.539062 19.175781 18.230469 19.367188 18.042969 C 20.308594 17.097656 20.828125 15.847656 20.828125 14.515625 C 20.828125 13.183594 20.308594 11.933594 19.367188 10.992188 C 19.175781 10.800781 19.175781 10.496094 19.367188 10.304688 C 19.554688 10.117188 19.859375 10.117188 20.050781 10.304688 C 21.175781 11.433594 21.792969 12.925781 21.792969 14.515625 C 21.792969 16.105469 21.175781 17.601562 20.050781 18.726562 C 19.953125 18.820312 19.832031 18.867188 19.707031 18.867188 Z M 21.871094 20.546875 C 21.777344 20.644531 21.652344 20.691406 21.53125 20.691406 C 21.40625 20.691406 21.28125 20.644531 21.1875 20.546875 C 21 20.359375 21 20.054688 21.1875 19.863281 C 22.617188 18.433594 23.40625 16.535156 23.40625 14.515625 C 23.40625 12.5 22.617188 10.597656 21.1875 9.167969 C 21 8.980469 21 8.671875 21.1875 8.484375 C 21.375 8.292969 21.683594 8.292969 21.871094 8.484375 C 23.484375 10.097656 24.375 12.238281 24.375 14.515625 C 24.375 16.792969 23.484375 18.933594 21.871094 20.546875 Z M 21.871094 20.546875 " fill-opacity="1" fill-rule="nonzero"/></g></svg>